<?xml version="1.0" encoding="utf-8"?>
<!-- Generator: Adobe Illustrator 19.0.0, SVG Export Plug-In . SVG Version: 6.00 Build 0)  -->
<svg version="1.1" id="图层_1" xmlns="http://www.w3.org/2000/svg" xmlns:xlink="http://www.w3.org/1999/xlink" x="0px" y="0px"
	 viewBox="0 0 48 55" style="enable-background:new 0 0 48 55;" xml:space="preserve">
<style type="text/css">
	.st0{fill-rule:evenodd;clip-rule:evenodd;fill:#B2B2B2;}
</style>
<g id="XMLID_3_">
	<g id="XMLID_121_">
		<path id="XMLID_122_" class="st0" d="M31.2,4.7l2.7-4.1C34,0.5,34,0.2,33.8,0.1l-0.1,0c-0.2-0.1-0.4-0.1-0.6,0.1l-2.8,4.2
			c-1.9-0.8-4.1-1.3-6.4-1.3c-2.2,0-4.2,0.4-6.1,1.2l-3.1-4.1C14.7,0,14.4-0.1,14.2,0l-0.1,0c-0.2,0.1-0.2,0.4-0.1,0.5l3,4
			C12.8,6.6,9.6,10.5,9,15h30C38.4,10.6,35.4,6.8,31.2,4.7z M17.5,11c-0.8,0-1.5-0.7-1.5-1.5S16.7,8,17.5,8C18.3,8,19,8.7,19,9.5
			S18.3,11,17.5,11z M30.5,11c-0.8,0-1.5-0.7-1.5-1.5S29.7,8,30.5,8C31.3,8,32,8.7,32,9.5S31.3,11,30.5,11z M3.9,17H3.2
			C1.4,17,0,18.7,0,20.8v12.3C0,35.3,1.4,37,3.2,37h0.7C5.6,37,7,35.3,7,33.1V20.8C7,18.7,5.6,17,3.9,17z M44.9,17h-0.7
			c-1.7,0-3.1,1.7-3.1,3.8v12.3c0,2.1,1.4,3.8,3.1,3.8h0.7c1.7,0,3.1-1.7,3.1-3.8V20.8C48,18.7,46.6,17,44.9,17z M9,41.2
			c0,1.7,1.4,2.9,3.1,2.9l2.8,0v7.1c0,2.2,1.2,3.9,2.8,3.9h0.7c1.6,0,2.6-1.7,2.6-3.9l0-7.1l6,0l0,7.1c0,2.1,1.2,3.9,2.9,3.9h0.7
			c1.6,0,3.5-1.7,3.5-3.9l0-7.1l2.1,0c1.6,0,2.9-1.2,2.9-2.9V17H9V41.2z"/>
	</g>
</g>
</svg>
