<?xml version="1.0" encoding="utf-8"?>
<!-- Generator: Adobe Illustrator 19.0.0, SVG Export Plug-In . SVG Version: 6.00 Build 0)  -->
<svg version="1.1" xmlns="http://www.w3.org/2000/svg" xmlns:xlink="http://www.w3.org/1999/xlink" x="0px" y="0px"
	 viewBox="0 0 15 16.6" style="enable-background:new 0 0 15 16.6;" xml:space="preserve">
<style type="text/css">
	.st0{display:none;}
	.st1{display:inline;fill:#DBDBDB;}
	.st2{display:inline;}
	.st3{fill-rule:evenodd;clip-rule:evenodd;fill:#DBDBDB;}
	.st4{fill:#DBDBDB;}
	.st5{display:inline;fill-rule:evenodd;clip-rule:evenodd;fill:none;}
	.st6{fill-rule:evenodd;clip-rule:evenodd;fill:#F4F4F4;}
</style>
<g id="图层_4">
	<path id="XMLID_193_" class="st6" d="M4.9,0.6l1,3.4c0.1,0.3,0,0.7-0.3,0.9C5.2,5.1,4.4,6,4.4,6S3.6,6.6,5.8,9.5
		C8.1,12.4,9,11.8,9,11.8s1.1-0.3,1.5-0.6c0.4-0.3,0.8-0.3,1.1,0l2.9,1.9c0.3,0.2,0.6,0.9,0.3,1.2c0,0-0.6,1.4-1.2,1.8
		c-0.6,0.4-1.1,0.4-1.4,0.4c-0.3,0-1.5,0-2.4-0.3c-1.7-0.4-4.8-2-7-4.9C0.7,8.6-0.2,5.4,0,3.8c0-0.9,0.2-1.7,0.6-2.4
		c0.2-0.3,0.6-0.7,1-0.8C2.3,0.3,3.8,0,3.8,0S4.6-0.1,4.9,0.6z"/>
</g>
</svg>
