<?xml version="1.0" encoding="utf-8"?>
<!-- Generator: Adobe Illustrator 19.0.0, SVG Export Plug-In . SVG Version: 6.00 Build 0)  -->
<svg version="1.1" id="图层_2" xmlns="http://www.w3.org/2000/svg" xmlns:xlink="http://www.w3.org/1999/xlink" x="0px" y="0px"
	 viewBox="-322.5 366 81 61" style="enable-background:new -322.5 366 81 61;" xml:space="preserve">
<style type="text/css">
	.st0{fill-rule:evenodd;clip-rule:evenodd;fill:#6A84AA;}
</style>
<g>
	<g>
		<path class="st0" d="M-316.5,417c-1.1,0-2-0.9-2-2v-38c0-1.1,0.9-2,2-2h58c1.1,0,2,0.9,2,2v10.7c1.4,0.4,2.7,0.9,4,1.5V369
			c0-1.7-1.3-3-3-3h-64c-1.7,0-3,1.3-3,3v49c0,1.7,1.3,3,3,3h43.7c-1.2-1.2-2.2-2.5-3-4H-316.5z M-261.5,390.2
			c-9.3,0-16.8,7.5-16.8,16.8s7.5,16.8,16.8,16.8s16.8-7.5,16.8-16.8S-252.2,390.2-261.5,390.2z M-254.8,412.7l-4.3,2.5l-2.6-4.4
			l-3.8,2.3l0.1-13l10.9,6.4l-3,1.8L-254.8,412.7z"/>
	</g>
</g>
</svg>
