<?xml version="1.0" encoding="utf-8"?>
<!-- Generator: Adobe Illustrator 19.0.0, SVG Export Plug-In . SVG Version: 6.00 Build 0)  -->
<svg version="1.1" xmlns="http://www.w3.org/2000/svg" xmlns:xlink="http://www.w3.org/1999/xlink" x="0px" y="0px"
	 viewBox="0 0 28.4 22.5" style="enable-background:new 0 0 28.4 22.5;" xml:space="preserve">
<style type="text/css">
	.st0{display:none;}
	.st1{display:inline;fill:#DBDBDB;}
	.st2{display:inline;}
	.st3{fill-rule:evenodd;clip-rule:evenodd;fill:#DBDBDB;}
	.st4{fill:#DBDBDB;}
</style>
<g id="图层_3">
	<g id="XMLID_133_">
		<g id="XMLID_219_">
			<path id="XMLID_220_" class="st4" d="M20.9,11c-1.1-0.2-0.6-0.8-0.6-0.8s1.1-1.8-0.2-3.1c-1.6-1.6-5.5,0.2-5.5,0.2
				c-1.5,0.5-1.1-0.2-0.9-1.3c0-1.3-0.5-3.6-4.4-2.3C5.4,5,2.1,9.8,2.1,9.8c-2.4,3.1-2,5.6-2,5.6c0.6,5.4,6.3,6.8,10.7,7.2
				c4.7,0.4,10.9-1.6,12.9-5.7C25.5,12.8,22,11.2,20.9,11z M11.1,21c-4.6,0.2-8.4-2.1-8.4-5.2c0-3.1,3.7-5.6,8.4-5.8
				c4.6-0.2,8.4,1.7,8.4,4.8C19.4,17.9,15.7,20.8,11.1,21z M10.1,12.1C5.5,12.6,6,17,6,17s0,1.4,1.2,2.1c2.7,1.5,5.5,0.6,6.9-1.2
				C15.6,16,14.8,11.5,10.1,12.1z M9,18.2c-0.9,0.1-1.6-0.4-1.6-1.1c0-0.7,0.6-1.5,1.5-1.6c1-0.1,1.6,0.5,1.6,1.2
				C10.5,17.4,9.8,18.1,9,18.2z M11.7,15.8c-0.3,0.2-0.7,0.2-0.8-0.1c-0.2-0.3-0.1-0.7,0.2-0.9c0.3-0.3,0.7-0.2,0.9,0.1
				C12.1,15.2,12,15.6,11.7,15.8z M23.2,9.1c0.4,0,0.7-0.3,0.7-0.6c0,0,0-0.1,0-0.1c0.6-5.1-4.2-4.2-4.2-4.2c-0.4,0-0.8,0.3-0.8,0.8
				c0,0.4,0.3,0.8,0.8,0.8c3.4-0.8,2.7,2.7,2.7,2.7C22.4,8.8,22.8,9.1,23.2,9.1z M22.6,0.2c-1.6-0.4-3.3-0.1-3.8,0c0,0-0.1,0-0.1,0
				c0,0,0,0,0,0c-0.5,0.1-0.8,0.6-0.8,1.1c0,0.6,0.5,1.1,1.1,1.1c0,0,0.6-0.1,1-0.2c0.4-0.2,3.8-0.1,5.5,2.7
				c0.9,2.1,0.4,3.5,0.3,3.7c0,0-0.2,0.5-0.2,1.1c0,0.6,0.5,1,1.1,1c0.5,0,0.9-0.1,1.1-0.9h0C29.6,3.7,25.6,0.9,22.6,0.2z"/>
		</g>
	</g>
</g>
</svg>
