<?xml version="1.0" encoding="utf-8"?>
<!-- Generator: Adobe Illustrator 19.0.0, SVG Export Plug-In . SVG Version: 6.00 Build 0)  -->
<svg version="1.1" id="图层_1" xmlns="http://www.w3.org/2000/svg" xmlns:xlink="http://www.w3.org/1999/xlink" x="0px" y="0px"
	 viewBox="0 0 68 74" style="enable-background:new 0 0 68 74;" xml:space="preserve">
<style type="text/css">
	.st0{fill-rule:evenodd;clip-rule:evenodd;fill:#51C7FF;}
</style>
<g id="XMLID_91_">
	<g id="XMLID_155_">
		<path id="XMLID_156_" class="st0" d="M65,68H3c-1.7,0-3,1.3-3,3c0,1.7,1.3,3,3,3h62c1.7,0,3-1.3,3-3C68,69.3,66.7,68,65,68z
			 M32.2,59.1c0.1,0.1,0.3,0.3,0.5,0.4c0.1,0,0.2,0.1,0.2,0.1c0.1,0.1,0.2,0.1,0.3,0.1c0.1,0,0.2,0.1,0.3,0.1c0.1,0,0.2,0.1,0.3,0.1
			c0.2,0,0.4,0.1,0.6,0.1c0,0,0,0,0,0c0,0,0,0,0,0c0.2,0,0.4,0,0.6-0.1c0.1,0,0.2-0.1,0.3-0.1c0,0,0,0,0.1,0c0.1,0,0.2,0,0.2-0.1
			c0,0,0,0,0,0c0.1,0,0.2-0.1,0.3-0.2c0.1,0,0.2-0.1,0.2-0.1c0.2-0.1,0.3-0.2,0.5-0.4l22.6-22.6c1.2-1.2,1.2-3.1,0-4.2
			c-1.2-1.2-3.1-1.2-4.2,0L37.3,49.8V3c0-1.7-1.3-3-3-3c-1.7,0-3,1.3-3,3v46.8L13.8,32.3c-1.2-1.2-3.1-1.2-4.2,0
			c-1.2,1.2-1.2,3.1,0,4.2L32.2,59.1z"/>
	</g>
</g>
</svg>
