<?xml version="1.0" encoding="utf-8"?>
<!-- Generator: Adobe Illustrator 19.0.0, SVG Export Plug-In . SVG Version: 6.00 Build 0)  -->
<svg version="1.1" id="图层_1" xmlns="http://www.w3.org/2000/svg" xmlns:xlink="http://www.w3.org/1999/xlink" x="0px" y="0px"
	 viewBox="0 0 80 80" style="enable-background:new 0 0 80 80;" xml:space="preserve">
<style type="text/css">
	.st0{fill-rule:evenodd;clip-rule:evenodd;fill:#FF6565;}
</style>
<g>
	<g id="XMLID_68_">
		<path id="XMLID_71_" class="st0" d="M66.9,54.4c-1.4-1.1-2.5-2.5-3.4-3.9c-0.9-1.5-1.5-3-1.9-4.7c-0.4-1.6-0.6-3.3-0.4-5
			c0.1-1.7,0.5-3.4,1.1-4.9c0.6-1.6,1.6-3.1,2.8-4.4c1.2-1.3,2.7-2.5,4.5-3.5c-2.8-3.5-6.4-5.8-10.1-6.9c-1.4-0.4-2.7-0.6-4.1-0.6
			c-3.2,0-5.6,0.8-7.6,1.5c-2.2,0.8-4.1,1.6-6.4,1.6c-1.5,0-2.9-0.3-4.3-0.8c-3-0.9-5.9-2.4-9.8-2.4c-0.7,0-1.4,0-2,0.1
			c-3.8,0.5-7.6,2.5-10.7,5.7c-1.3,1.3-2.5,2.9-3.4,4.5c-0.9,1.6-1.5,3.4-2,5.4c-0.4,1.9-0.7,4-0.7,6.2c0,2.2,0.2,4.5,0.6,6.8
			c0.4,2.3,1,4.7,1.8,7c0.8,2.3,1.9,4.7,3.1,7c0.6,1.1,1.3,2.3,2,3.4c0.6,1,1.3,1.9,2,2.9c2.7,3.6,6.3,7.3,11.1,7.2
			c4.4-0.2,5.9-3.1,12.2-3.1c0.1,0,0.3,0,0.4,0c6.2,0.1,7.5,3.1,12.2,3.1c0,0,0,0,0,0c4.2-0.1,7.8-3.6,10.6-7.4
			c0.8-1.1,1.6-2.2,2.3-3.3c2.2-3.4,3.1-5.1,4.8-8.9C69.8,56.5,68.2,55.6,66.9,54.4z M50.3,15.2c2.4-3.1,4.2-7.5,3.6-11.9
			c-3.9,0.3-8.6,2.8-11.2,6c-2.4,3-4.5,7.4-3.7,11.6C43.3,21.1,47.7,18.5,50.3,15.2z"/>
	</g>
</g>
</svg>
