<?xml version="1.0" encoding="utf-8"?>
<!-- Generator: Adobe Illustrator 19.0.0, SVG Export Plug-In . SVG Version: 6.00 Build 0)  -->
<svg version="1.1" xmlns="http://www.w3.org/2000/svg" xmlns:xlink="http://www.w3.org/1999/xlink" x="0px" y="0px"
	 viewBox="0 0 47 49" style="enable-background:new 0 0 47 49;" xml:space="preserve">
<style type="text/css">
	.st0{display:none;}
	.st1{display:inline;fill-rule:evenodd;clip-rule:evenodd;fill:#EDEDED;}
	.st2{fill-rule:evenodd;clip-rule:evenodd;fill:#F7F7F7;}
</style>
<g id="图层_2">
	<g id="XMLID_44_">
		<g id="XMLID_92_">
			<path id="XMLID_93_" class="st2" d="M40,0H7C3.1,0,0,3.1,0,7v4h47V7C47,3.1,43.9,0,40,0z M6.5,8C5.7,8,5,7.3,5,6.5
				C5,5.7,5.7,5,6.5,5C7.3,5,8,5.7,8,6.5C8,7.3,7.3,8,6.5,8z M12.5,8C11.7,8,11,7.3,11,6.5C11,5.7,11.7,5,12.5,5
				C13.3,5,14,5.7,14,6.5C14,7.3,13.3,8,12.5,8z M18.5,8C17.7,8,17,7.3,17,6.5C17,5.7,17.7,5,18.5,5C19.3,5,20,5.7,20,6.5
				C20,7.3,19.3,8,18.5,8z M0,42c0,3.9,3.1,7,7,7h33c3.9,0,7-3.1,7-7V14H0V42z"/>
		</g>
	</g>
</g>
</svg>
