<?xml version="1.0" encoding="utf-8"?>
<!-- Generator: Adobe Illustrator 19.0.0, SVG Export Plug-In . SVG Version: 6.00 Build 0)  -->
<svg version="1.1" xmlns="http://www.w3.org/2000/svg" xmlns:xlink="http://www.w3.org/1999/xlink" x="0px" y="0px"
	 viewBox="0 0 27.4 22.3" style="enable-background:new 0 0 27.4 22.3;" xml:space="preserve">
<style type="text/css">
	.st0{display:none;}
	.st1{display:inline;fill:#DBDBDB;}
	.st2{fill-rule:evenodd;clip-rule:evenodd;fill:#DBDBDB;}
</style>
<g id="图层_2">
	<g id="XMLID_45_">
		<g id="XMLID_168_">
			<path id="XMLID_169_" class="st2" d="M18.5,6.8c0.3,0,0.6,0,0.9,0.1c-0.8-3.9-5-6.8-9.8-6.8C4.4,0.1,0,3.7,0,8.3
				c0,2.7,1.5,4.8,3.9,6.5l-1,2.9L6.3,16c1.2,0.2,2.2,0.5,3.4,0.5c0.3,0,0.6,0,0.9,0c-0.2-0.6-0.3-1.3-0.3-2
				C10.3,10.2,13.9,6.8,18.5,6.8z M13.3,4.2c0.7,0,1.2,0.5,1.2,1.2c0,0.7-0.5,1.2-1.2,1.2c-0.7,0-1.5-0.5-1.5-1.2
				C11.9,4.7,12.6,4.2,13.3,4.2z M6.5,6.6c-0.7,0-1.5-0.5-1.5-1.2c0-0.7,0.7-1.2,1.5-1.2c0.7,0,1.2,0.5,1.2,1.2
				C7.7,6.1,7.3,6.6,6.5,6.6z M27.4,14.3c0-3.9-3.9-7-8.2-7c-4.6,0-8.2,3.1-8.2,7c0,3.9,3.6,7,8.2,7c1,0,1.9-0.2,2.9-0.5l2.7,1.5
				L24,19.9C25.9,18.4,27.4,16.5,27.4,14.3z M16.5,13.1c-0.5,0-1-0.5-1-1c0-0.5,0.5-1,1-1c0.7,0,1.2,0.5,1.2,1
				C17.7,12.6,17.2,13.1,16.5,13.1z M21.8,13.1c-0.5,0-1-0.5-1-1c0-0.5,0.5-1,1-1c0.7,0,1.2,0.5,1.2,1C23,12.6,22.5,13.1,21.8,13.1z
				"/>
		</g>
	</g>
</g>
</svg>
