<?xml version="1.0" encoding="utf-8"?>
<!-- Generator: Adobe Illustrator 19.0.0, SVG Export Plug-In . SVG Version: 6.00 Build 0)  -->
<svg version="1.1" id="图层_1" xmlns="http://www.w3.org/2000/svg" xmlns:xlink="http://www.w3.org/1999/xlink" x="0px" y="0px"
	 viewBox="0 0 21.4 22.2" style="enable-background:new 0 0 21.4 22.2;" xml:space="preserve">
<style type="text/css">
	.st0{fill:#DBDBDB;}
</style>
<path id="XMLID_15_" class="st0" d="M21.4,10.7C21.4,4.8,16.6,0,10.7,0C4.8,0,0,4.8,0,10.7c0,4.1,2.3,7.7,5.7,9.5l0,0
	c2.4,1.3,5.2,2.1,8.1,2.1c2,0,3.9-0.3,5.6-1c-1.1-0.4-2.1-0.9-3.1-1.5C19.4,17.8,21.4,14.5,21.4,10.7z M15.9,12.3
	c-1.1,3.8-4.7,6.6-8.8,6.6c-1.6,0-3.1-0.4-4.4-1.1c0.3,0,0.5,0.1,0.8,0.1c1.8,0,3.4-1,4.2-2.5l0,0c-1.6-1-2.6-2.7-2.6-4.7
	c0-3,2.4-5.5,5.5-5.5c3,0,5.5,2.5,5.5,5.5C16.2,11.3,16.1,11.8,15.9,12.3L15.9,12.3z"/>
</svg>
